<svg id="Laag_1" data-name="Laag 1" xmlns="http://www.w3.org/2000/svg" viewBox="0 0 1301.52 1303.89"><defs><style>.cls-1{fill:#fff;}.cls-2{fill:#ccc;}</style></defs><polygon class="cls-1" points="827.86 1303.42 663.7 937.61 566.17 993.36 309.57 736.76 365.31 639.23 -0.49 475.07 192.03 351.8 586.09 418.46 914.21 90.34 940.95 84.15 1302.11 0.8 1301.85 1.87 1218.78 361.98 1212.59 388.72 884.47 716.84 951.13 1110.9 827.86 1303.42"/><polygon class="cls-1" points="552.21 965.43 542.26 969.45 481.89 993.92 309.01 821.04 333.48 760.67 337.52 750.75 552.21 965.43"/><polygon class="cls-2" points="827.86 1303.42 663.7 937.61 566.17 993.36 542.26 969.45 481.89 993.92 395.85 907.88 1301.85 1.87 1218.78 361.98 1212.59 388.72 884.47 716.84 951.13 1110.9 827.86 1303.42"/></svg>